{
    "asset" : {
        "generator" : "Khronos glTF Blender I/O v3.2.43",
        "version" : "2.0"
    },
    "scene" : 0,
    "scenes" : [
        {
            "name" : "Scene",
            "nodes" : [
                0,
                3
            ]
        }
    ],
    "nodes" : [
        {
            "mesh" : 0,
            "name" : "gunbody",
            "rotation" : [
                0.7071068286895752,
                0,
                0,
                0.7071067094802856
            ],
            "translation" : [
                -0.0059927646070718765,
                0.5083405375480652,
                0.8602111339569092
            ]
        },
        {
            "name" : "slidetrigger",
            "rotation" : [
                -0.5006917119026184,
                -0.49930721521377563,
                0.500691831111908,
                0.4993072748184204
            ],
            "scale" : [
                0.9999999403953552,
                0.9999998211860657,
                1
            ],
            "translation" : [
                3.073364496231079e-08,
                -0.7023415565490723,
                -0.5091834664344788
            ]
        },
        {
            "mesh" : 1,
            "name" : "slidetrigger",
            "skin" : 0
        },
        {
            "children" : [
                2,
                1
            ],
            "name" : "Armature",
            "rotation" : [
                0.7071068286895752,
                0,
                0,
                0.7071067094802856
            ],
            "translation" : [
                -0.005259877070784569,
                -0.0024486184120178223,
                -0.0007259845733642578
            ]
        }
    ],
    "materials" : [
        {
            "doubleSided" : true,
            "name" : "01 - Default",
            "normalTexture" : {
                "index" : 0
            },
            "pbrMetallicRoughness" : {
                "baseColorTexture" : {
                    "index" : 1
                },
                "roughnessFactor" : 0.858578622341156
            }
        }
    ],
    "meshes" : [
        {
            "name" : "Mesh.001",
            "primitives" : [
                {
                    "attributes" : {
                        "POSITION" : 0,
                        "NORMAL" : 1,
                        "TEXCOORD_0" : 2
                    },
                    "indices" : 3,
                    "material" : 0
                }
            ]
        },
        {
            "name" : "Mesh",
            "primitives" : [
                {
                    "attributes" : {
                        "POSITION" : 4,
                        "NORMAL" : 5,
                        "TEXCOORD_0" : 6,
                        "JOINTS_0" : 7,
                        "WEIGHTS_0" : 8
                    },
                    "indices" : 9,
                    "material" : 0
                }
            ]
        }
    ],
    "textures" : [
        {
            "sampler" : 0,
            "source" : 0
        },
        {
            "sampler" : 0,
            "source" : 1
        }
    ],
    "images" : [
        {
            "bufferView" : 4,
            "mimeType" : "image/png",
            "name" : "N_<UDIM>_normal"
        },
        {
            "bufferView" : 5,
            "mimeType" : "image/jpeg",
            "name" : "257"
        }
    ],
    "skins" : [
        {
            "inverseBindMatrices" : 10,
            "joints" : [
                1
            ],
            "name" : "Armature"
        }
    ],
    "accessors" : [
        {
            "bufferView" : 0,
            "componentType" : 5126,
            "count" : 2105,
            "max" : [
                0.10887788981199265,
                0.2140752375125885,
                1.2237474918365479
            ],
            "min" : [
                -0.10741186887025833,
                -1.9359490871429443,
                -0.1019073873758316
            ],
            "type" : "VEC3"
        },
        {
            "bufferView" : 1,
            "componentType" : 5126,
            "count" : 2105,
            "type" : "VEC3"
        },
        {
            "bufferView" : 2,
            "componentType" : 5126,
            "count" : 2105,
            "type" : "VEC2"
        },
        {
            "bufferView" : 3,
            "componentType" : 5123,
            "count" : 6732,
            "type" : "SCALAR"
        },
        {
            "bufferView" : 6,
            "componentType" : 5126,
            "count" : 837,
            "max" : [
                0.08389531821012497,
                0.6745046377182007,
                1.0634088516235352
            ],
            "min" : [
                -0.09441552311182022,
                0.3932074010372162,
                -0.8064538240432739
            ],
            "type" : "VEC3"
        },
        {
            "bufferView" : 7,
            "componentType" : 5126,
            "count" : 837,
            "type" : "VEC3"
        },
        {
            "bufferView" : 8,
            "componentType" : 5126,
            "count" : 837,
            "type" : "VEC2"
        },
        {
            "bufferView" : 9,
            "componentType" : 5121,
            "count" : 837,
            "type" : "VEC4"
        },
        {
            "bufferView" : 10,
            "componentType" : 5126,
            "count" : 837,
            "type" : "VEC4"
        },
        {
            "bufferView" : 11,
            "componentType" : 5123,
            "count" : 2484,
            "type" : "SCALAR"
        },
        {
            "bufferView" : 12,
            "componentType" : 5126,
            "count" : 1,
            "type" : "MAT4"
        }
    ],
    "bufferViews" : [
        {
            "buffer" : 0,
            "byteLength" : 25260,
            "byteOffset" : 0
        },
        {
            "buffer" : 0,
            "byteLength" : 25260,
            "byteOffset" : 25260
        },
        {
            "buffer" : 0,
            "byteLength" : 16840,
            "byteOffset" : 50520
        },
        {
            "buffer" : 0,
            "byteLength" : 13464,
            "byteOffset" : 67360
        },
        {
            "buffer" : 0,
            "byteLength" : 640533,
            "byteOffset" : 80824
        },
        {
            "buffer" : 0,
            "byteLength" : 274371,
            "byteOffset" : 721360
        },
        {
            "buffer" : 0,
            "byteLength" : 10044,
            "byteOffset" : 995732
        },
        {
            "buffer" : 0,
            "byteLength" : 10044,
            "byteOffset" : 1005776
        },
        {
            "buffer" : 0,
            "byteLength" : 6696,
            "byteOffset" : 1015820
        },
        {
            "buffer" : 0,
            "byteLength" : 3348,
            "byteOffset" : 1022516
        },
        {
            "buffer" : 0,
            "byteLength" : 13392,
            "byteOffset" : 1025864
        },
        {
            "buffer" : 0,
            "byteLength" : 4968,
            "byteOffset" : 1039256
        },
        {
            "buffer" : 0,
            "byteLength" : 64,
            "byteOffset" : 1044224
        }
    ],
    "samplers" : [
        {
            "magFilter" : 9729,
            "minFilter" : 9987
        }
    ],
    "buffers" : [
        {
            "byteLength" : 1044288,
            "uri" : "data:application/octet-stream;base64,"
        }
    ]
}
